<svg width="72" height="40" viewBox="0 0 72 40" fill="none" xmlns="http://www.w3.org/2000/svg">
<path d="M19.6361 39.2721C30.4808 39.2721 39.2721 30.4808 39.2721 19.6361C39.2721 8.79137 30.4808 0 19.6361 0C8.79137 0 0 8.79137 0 19.6361C0 30.4808 8.79137 39.2721 19.6361 39.2721Z" fill="black"/>
<path d="M52.3644 37.6352C57.7868 37.6352 62.1825 29.5764 62.1825 19.6355C62.1825 9.69449 57.7868 1.63574 52.3644 1.63574C46.9421 1.63574 42.5464 9.69449 42.5464 19.6355C42.5464 29.5764 46.9421 37.6352 52.3644 37.6352Z" fill="black"/>
<path d="M68.7258 35.9978C70.5333 35.9978 71.9985 28.6716 71.9985 19.6344C71.9985 10.5971 70.5333 3.271 68.7258 3.271C66.9184 3.271 65.4531 10.5971 65.4531 19.6344C65.4531 28.6716 66.9184 35.9978 68.7258 35.9978Z" fill="black"/>
</svg>
