<svg width="53" height="53" viewBox="0 0 53 53" fill="none" xmlns="http://www.w3.org/2000/svg">
<path d="M53 45.6389C53 49.7052 49.7052 53 45.6389 53H7.36111C3.29631 53 0 49.7052 0 45.6389V7.36111C0 3.29483 3.29631 0 7.36111 0H45.6389C49.7052 0 53 3.29483 53 7.36111V45.6389Z" fill="black"/>
<path d="M9 19.9167H16.2917V44H9V19.9167ZM12.624 17.0833H12.5831C10.4073 17.0833 9 15.508 9 13.5402C9 11.53 10.451 10 12.6662 10C14.8844 10 16.2508 11.53 16.2917 13.5402C16.2917 15.5066 14.8844 17.0833 12.624 17.0833ZM44 44H36.7083V31.1097C36.7083 27.9959 34.9219 25.8709 32.0533 25.8709C29.8644 25.8709 28.6802 27.3046 28.1056 28.6901C27.8956 29.1859 27.9583 30.5572 27.9583 31.25V44H20.6667V19.9167H27.9583V23.6227C29.0098 22.0417 30.6563 19.9167 34.8679 19.9167C40.0858 19.9167 43.9985 23.1042 43.9985 30.2215L44 44Z" fill="white"/>
</svg>
