<svg width="52" height="43" viewBox="0 0 52 43" fill="none" xmlns="http://www.w3.org/2000/svg">
<path d="M52 5.08438C50.0892 5.95328 48.0339 6.53303 45.866 6.80734C48.07 5.46396 49.7656 3.32138 50.5615 0.79031C48.499 2.03138 46.214 2.94328 43.7832 3.42369C41.8421 1.31076 39.0733 0 36.0056 0C30.1127 0 25.3363 4.86048 25.3363 10.8538C25.3363 11.7019 25.4331 12.5278 25.6151 13.33C16.7498 12.8733 8.88693 8.54662 3.6267 1.98097C2.70233 3.58531 2.18237 5.46397 2.18237 7.44641C2.18237 11.2141 4.06144 14.531 6.92698 16.4853C5.1779 16.4304 3.53137 15.9308 2.08994 15.1301C2.08994 15.1627 2.08994 15.2116 2.08994 15.2576C2.08994 20.5229 5.76863 24.9074 10.6447 25.9053C9.75352 26.1559 8.81182 26.2952 7.84123 26.2952C7.15229 26.2952 6.48068 26.2152 5.83074 26.0951C7.1884 30.398 11.1271 33.543 15.7937 33.6364C12.1424 36.5426 7.5437 38.2833 2.54345 38.2833C1.67975 38.2833 0.834819 38.2329 0 38.1291C4.72438 41.1999 10.3341 43 16.3555 43C35.9767 43 46.7109 26.4583 46.7109 12.1082C46.7109 11.6382 46.6964 11.1696 46.6748 10.707C48.769 9.18866 50.5745 7.27293 52 5.08438Z" fill="black"/>
</svg>
