<svg width="582" height="97" viewBox="0 0 582 97" fill="none" xmlns="http://www.w3.org/2000/svg">
<g filter="url(#filter0_d_30_2)">
<path d="M108.687 33.0561C106.214 36.2278 104.824 40.1098 104.723 44.1306C104.723 45.2735 104.758 51.2102 108.621 56.171C112.009 60.5149 117.166 62.745 123.947 62.745H160.227V40.4239H132.988V41.1824C132.988 44.6869 135.4 47.5389 138.363 47.5389H154.113V55.6299H123.947C119.012 55.6299 115.397 54.2292 113.212 51.4732C111.692 49.4439 110.864 46.9797 110.851 44.4441V44.3228V44.1357C110.95 41.8214 111.8 39.6025 113.273 37.8146C116.089 34.3506 121.217 32.52 128.098 32.52H155.585C158.548 32.52 160.96 29.6679 160.96 26.1635V25.405H128.093C119.27 25.3797 112.737 27.9638 108.687 33.0561Z" fill="url(#paint0_linear_30_2)"/>
<path d="M220.586 55.6051H182.107C177.308 55.6051 176.884 50.6089 176.868 49.0868V31.7367C176.868 28.2323 174.457 25.3802 171.494 25.3802H170.735V49.0919C170.735 54.5735 173.769 62.7454 182.107 62.7454H226.719V25.3802H220.586V55.6051Z" fill="url(#paint1_linear_30_2)"/>
<path d="M565.63 25.3802H521.017V62.7454H527.15V32.4952H565.63C570.428 32.4952 570.853 37.4914 570.868 39.0135V56.3637C570.868 59.8681 573.28 62.7202 576.243 62.7202H577.001V39.0135C577.001 33.5319 573.973 25.3802 565.63 25.3802Z" fill="url(#paint2_linear_30_2)"/>
<path d="M423.067 29.2386C421.045 26.6798 418.233 25.3802 414.749 25.3802H370.142V62.7454H414.749C419.3 62.7454 426.126 59.1146 426.126 49.0919V39.0692C426.146 38.0932 426.091 33.0414 423.067 29.2386ZM419.993 38.9175V49.0919C419.993 55.0641 415.948 55.59 414.749 55.6102H376.275V32.5003H414.749C416.433 32.5003 417.707 33.006 418.542 34.0527C420.003 35.858 419.993 38.877 419.993 38.9175Z" fill="url(#paint3_linear_30_2)"/>
<path d="M437.038 25.3802H436.305V56.3637C436.305 59.8681 438.717 62.7202 441.68 62.7202H442.438V31.7367C442.413 28.2323 440.001 25.3802 437.038 25.3802Z" fill="url(#paint4_linear_30_2)"/>
<path d="M237.207 39.0135V62.7454H237.965C240.928 62.7454 243.335 59.8934 243.335 56.389V52.6317H287.058V62.7454H293.211V25.3802H248.578C240.235 25.3802 237.207 33.5319 237.207 39.0135ZM287.058 32.4952V45.5521H243.335V39.0237C243.335 37.5066 243.78 32.4952 248.578 32.4952H287.058Z" fill="url(#paint5_linear_30_2)"/>
<path d="M453.726 39.0135V62.7454H454.51C457.473 62.7454 459.885 59.8934 459.885 56.389V52.6317H503.557V62.7454H509.69V25.3802H465.098C456.755 25.3802 453.726 33.5319 453.726 39.0135ZM503.557 32.4952V45.5521H459.859V39.0237C459.859 37.5066 460.299 32.4952 465.098 32.4952H503.557Z" fill="url(#paint6_linear_30_2)"/>
<path d="M356.333 48.9046C359.367 45.1422 359.458 40.0449 359.447 39.079C359.437 38.1132 359.356 32.9147 356.302 29.117C355.352 27.9094 354.131 26.9421 352.738 26.293C351.345 25.6438 349.819 25.3311 348.283 25.38H303.67V62.7452H309.804V52.6315H348.232C349.466 52.6315 353.496 53.1726 353.496 59.1447V62.6845H359.629V59.1447C359.629 54.0575 357.839 50.9172 356.141 49.0866C356.227 49.036 356.277 48.9703 356.333 48.9046ZM353.299 39.1347C353.299 39.165 353.299 42.2396 351.812 44.0651C350.998 45.0765 349.871 45.5316 348.273 45.5316H309.794V32.495H348.273C349.861 32.495 350.978 32.9602 351.812 33.9564C353.329 35.8022 353.329 38.9678 353.329 39.0133V39.1549L353.299 39.1347Z" fill="url(#paint7_linear_30_2)"/>
<path d="M72.9931 57.8474C75.9205 49.8687 70.7718 47.3982 67.4877 46.6345C66.7095 46.4109 65.9037 46.2981 65.0941 46.2994H40.4994C31.9494 46.5388 35.3005 57.8522 35.3005 57.8522C23.8661 49.5335 23.0786 30.4736 23.0786 30.4736C27.8036 36.937 31.2672 36.6521 31.2672 36.6521H78.6731C77.6535 44.9277 75.6165 51.9322 72.9931 57.8474Z" fill="url(#paint8_linear_30_2)"/>
<path d="M79.5397 30.6942H59.4331C67.2962 28.8557 72.0308 22.1529 72.0308 22.1529C75.2479 18.2341 77.8498 13.377 78.4745 12.1537L78.5798 11.9454L78.6061 11.8904V11.8593C80.8107 22.6077 79.5397 30.6942 79.5397 30.6942Z" fill="url(#paint9_linear_30_2)"/>
<path d="M78.6134 11.8688V11.8879L78.5871 11.943L78.4842 12.1513C77.8594 13.3626 75.2551 18.2317 72.0405 22.1504C56.0989 20.3024 41.7753 11.9861 41.7753 11.9861C28.7109 19.9553 14.5597 21.7554 14.5597 21.7554C8.81498 18.9714 5.03542 12.0962 4.91814 11.8855C26.7194 9.78851 41.9501 0 41.9501 0C59.6414 11.007 78.6134 11.8688 78.6134 11.8688Z" fill="url(#paint10_linear_30_2)"/>
<path d="M41.7682 76.2111C41.7682 76.2111 25.1205 77.1926 11.2063 59.4325C0.451677 36.911 4.92059 11.8593 4.92059 11.8593C5.03788 12.0723 8.81982 18.9451 14.5622 21.7315C15.9816 53.7016 28.1652 67.4137 35.7363 72.8908L35.7626 72.9052C39.1687 75.3709 41.6414 76.1608 41.761 76.1991L41.7682 76.2111Z" fill="url(#paint11_linear_30_2)"/>
<path d="M72.9896 57.8538C62.2182 82.1491 41.5922 88.0357 41.5922 88.0357C25.9163 81.5028 16.6266 70.7998 11.205 59.4457C25.1192 77.2058 41.767 76.2243 41.767 76.2243C59.7863 69.1768 65.0978 46.301 65.0978 46.301C65.9045 46.3365 66.706 46.4487 67.4914 46.6362C70.7683 47.4046 75.9242 49.8751 72.9896 57.8538Z" fill="url(#paint12_radial_30_2)"/>
</g>
<defs>
<filter id="filter0_d_30_2" x="0" y="0" width="581.001" height="96.0356" filterUnits="userSpaceOnUse" color-interpolation-filters="sRGB">
<feFlood flood-opacity="0" result="BackgroundImageFix"/>
<feColorMatrix in="SourceAlpha" type="matrix" values="0 0 0 0 0 0 0 0 0 0 0 0 0 0 0 0 0 0 127 0" result="hardAlpha"/>
<feOffset dy="4"/>
<feGaussianBlur stdDeviation="2"/>
<feComposite in2="hardAlpha" operator="out"/>
<feColorMatrix type="matrix" values="0 0 0 0 0 0 0 0 0 0 0 0 0 0 0 0 0 0 0.25 0"/>
<feBlend mode="normal" in2="BackgroundImageFix" result="effect1_dropShadow_30_2"/>
<feBlend mode="normal" in="SourceGraphic" in2="effect1_dropShadow_30_2" result="shape"/>
</filter>
<linearGradient id="paint0_linear_30_2" x1="104.723" y1="44.0497" x2="160.965" y2="44.0497" gradientUnits="userSpaceOnUse">
<stop stop-color="#8F8F8F"/>
<stop offset="1" stop-color="#555555"/>
</linearGradient>
<linearGradient id="paint1_linear_30_2" x1="170.735" y1="44.0502" x2="226.719" y2="44.0502" gradientUnits="userSpaceOnUse">
<stop stop-color="#8F8F8F"/>
<stop offset="1" stop-color="#555555"/>
</linearGradient>
<linearGradient id="paint2_linear_30_2" x1="521.017" y1="44.0502" x2="577.001" y2="44.0502" gradientUnits="userSpaceOnUse">
<stop stop-color="#8F8F8F"/>
<stop offset="1" stop-color="#555555"/>
</linearGradient>
<linearGradient id="paint3_linear_30_2" x1="370.142" y1="44.0502" x2="426.126" y2="44.0502" gradientUnits="userSpaceOnUse">
<stop stop-color="#8F8F8F"/>
<stop offset="1" stop-color="#555555"/>
</linearGradient>
<linearGradient id="paint4_linear_30_2" x1="436.279" y1="44.0502" x2="442.413" y2="44.0502" gradientUnits="userSpaceOnUse">
<stop stop-color="#8F8F8F"/>
<stop offset="1" stop-color="#555555"/>
</linearGradient>
<linearGradient id="paint5_linear_30_2" x1="237.207" y1="44.0502" x2="293.191" y2="44.0502" gradientUnits="userSpaceOnUse">
<stop stop-color="#8F8F8F"/>
<stop offset="1" stop-color="#555555"/>
</linearGradient>
<linearGradient id="paint6_linear_30_2" x1="453.726" y1="44.0502" x2="509.71" y2="44.0502" gradientUnits="userSpaceOnUse">
<stop stop-color="#8F8F8F"/>
<stop offset="1" stop-color="#555555"/>
</linearGradient>
<linearGradient id="paint7_linear_30_2" x1="303.67" y1="44.0499" x2="359.655" y2="44.0499" gradientUnits="userSpaceOnUse">
<stop stop-color="#8F8F8F"/>
<stop offset="1" stop-color="#555555"/>
</linearGradient>
<linearGradient id="paint8_linear_30_2" x1="19.9261" y1="49.117" x2="80.3275" y2="38.4687" gradientUnits="userSpaceOnUse">
<stop offset="0.07" stop-color="#999999"/>
<stop offset="0.22" stop-color="#B3B3B3"/>
<stop offset="0.36" stop-color="#C5C6C8"/>
<stop offset="0.55" stop-color="#CCCCCC"/>
<stop offset="0.74" stop-color="#B3B3B3"/>
<stop offset="0.98" stop-color="#808285"/>
</linearGradient>
<linearGradient id="paint9_linear_30_2" x1="66.705" y1="34.0169" x2="81.8584" y2="15.9566" gradientUnits="userSpaceOnUse">
<stop offset="0.07" stop-color="#999999"/>
<stop offset="0.37" stop-color="#ACAEB1"/>
<stop offset="0.64" stop-color="#ABADAF"/>
<stop offset="0.94" stop-color="#999999"/>
</linearGradient>
<linearGradient id="paint10_linear_30_2" x1="4.49207" y1="11.0812" x2="78.1873" y2="11.0812" gradientUnits="userSpaceOnUse">
<stop stop-color="#58595B"/>
<stop offset="0.03" stop-color="#5F6062"/>
<stop offset="0.25" stop-color="#919395"/>
<stop offset="0.42" stop-color="#B0B2B4"/>
<stop offset="0.51" stop-color="#BCBEC0"/>
<stop offset="0.59" stop-color="#B7B8BA"/>
<stop offset="0.7" stop-color="#A7A9AB"/>
<stop offset="0.82" stop-color="#8D8F91"/>
<stop offset="0.95" stop-color="#6A6B6D"/>
<stop offset="1" stop-color="#58595B"/>
</linearGradient>
<linearGradient id="paint11_linear_30_2" x1="32.4283" y1="80.5679" x2="1.1984" y2="13.5995" gradientUnits="userSpaceOnUse">
<stop offset="0.06" stop-color="#BCBEC0"/>
<stop offset="0.2" stop-color="#B3B3B3"/>
<stop offset="0.35" stop-color="#CED0D1"/>
<stop offset="0.48" stop-color="#C9CBCD"/>
<stop offset="0.67" stop-color="#B3B3B3"/>
<stop offset="1" stop-color="#808080"/>
</linearGradient>
<radialGradient id="paint12_radial_30_2" cx="0" cy="0" r="1" gradientUnits="userSpaceOnUse" gradientTransform="translate(42.4204 74.7527) scale(44.9501 43.1562)">
<stop offset="0.24" stop-color="#8B8D90"/>
<stop offset="0.53" stop-color="#A7A9AC"/>
<stop offset="0.64" stop-color="#929497"/>
<stop offset="0.74" stop-color="#808285"/>
<stop offset="0.99" stop-color="#666666"/>
</radialGradient>
</defs>
</svg>
