<svg width="574" height="89" viewBox="0 0 574 89" fill="none" xmlns="http://www.w3.org/2000/svg">
<path d="M104.687 33.0561C102.214 36.2278 100.824 40.1098 100.723 44.1306C100.723 45.2735 100.758 51.2102 104.621 56.171C108.009 60.5149 113.166 62.745 119.947 62.745H156.227V40.4239H128.988V41.1825C128.988 44.6869 131.4 47.539 134.363 47.539H150.113V55.63H119.947C115.012 55.63 111.397 54.2292 109.212 51.4732C107.692 49.4439 106.864 46.9797 106.851 44.4441V44.3228V44.1357C106.95 41.8214 107.8 39.6025 109.273 37.8146C112.089 34.3506 117.217 32.52 124.098 32.52H151.585C154.548 32.52 156.96 29.668 156.96 26.1635V25.405H124.093C115.27 25.3797 108.737 27.9638 104.687 33.0561Z" fill="url(#paint0_linear_14_5)"/>
<path d="M216.586 55.6051H178.107C173.308 55.6051 172.884 50.6089 172.869 49.0868V31.7367C172.869 28.2323 170.457 25.3802 167.494 25.3802H166.735V49.0919C166.735 54.5735 169.769 62.7454 178.107 62.7454H222.719V25.3802H216.586V55.6051Z" fill="url(#paint1_linear_14_5)"/>
<path d="M561.63 25.3802H517.017V62.7454H523.15V32.4952H561.63C566.428 32.4952 566.853 37.4914 566.868 39.0135V56.3637C566.868 59.8681 569.28 62.7202 572.243 62.7202H573.001V39.0135C573.001 33.5319 569.973 25.3802 561.63 25.3802Z" fill="url(#paint2_linear_14_5)"/>
<path d="M419.067 29.2386C417.045 26.6798 414.233 25.3802 410.749 25.3802H366.142V62.7454H410.749C415.3 62.7454 422.126 59.1146 422.126 49.0919V39.0692C422.146 38.0932 422.091 33.0414 419.067 29.2386ZM415.993 38.9175V49.0919C415.993 55.0641 411.948 55.59 410.749 55.6102H372.275V32.5003H410.749C412.433 32.5003 413.707 33.006 414.542 34.0527C416.003 35.858 415.993 38.877 415.993 38.9175Z" fill="url(#paint3_linear_14_5)"/>
<path d="M433.038 25.3802H432.305V56.3637C432.305 59.8681 434.717 62.7202 437.68 62.7202H438.438V31.7367C438.413 28.2323 436.001 25.3802 433.038 25.3802Z" fill="url(#paint4_linear_14_5)"/>
<path d="M233.207 39.0135V62.7454H233.965C236.928 62.7454 239.335 59.8934 239.335 56.389V52.6317H283.058V62.7454H289.211V25.3802H244.578C236.235 25.3802 233.207 33.5319 233.207 39.0135ZM283.058 32.4952V45.5521H239.335V39.0237C239.335 37.5066 239.78 32.4952 244.578 32.4952H283.058Z" fill="url(#paint5_linear_14_5)"/>
<path d="M449.726 39.0135V62.7454H450.51C453.473 62.7454 455.885 59.8934 455.885 56.389V52.6317H499.557V62.7454H505.69V25.3802H461.098C452.755 25.3802 449.726 33.5319 449.726 39.0135ZM499.557 32.4952V45.5521H455.859V39.0237C455.859 37.5066 456.299 32.4952 461.098 32.4952H499.557Z" fill="url(#paint6_linear_14_5)"/>
<path d="M352.333 48.9046C355.367 45.1422 355.458 40.0449 355.447 39.079C355.437 38.1132 355.356 32.9147 352.302 29.117C351.352 27.9094 350.131 26.9421 348.738 26.293C347.345 25.6438 345.819 25.3311 344.283 25.38H299.67V62.7452H305.804V52.6315H344.232C345.466 52.6315 349.496 53.1726 349.496 59.1447V62.6845H355.629V59.1447C355.629 54.0575 353.839 50.9172 352.141 49.0866C352.227 49.036 352.277 48.9703 352.333 48.9046ZM349.299 39.1347C349.299 39.165 349.299 42.2396 347.812 44.0651C346.998 45.0765 345.871 45.5316 344.273 45.5316H305.794V32.495H344.273C345.861 32.495 346.978 32.9602 347.812 33.9564C349.329 35.8022 349.329 38.9678 349.329 39.0133V39.1549L349.299 39.1347Z" fill="url(#paint7_linear_14_5)"/>
<path d="M68.993 57.8474C71.9205 49.8687 66.7718 47.3982 63.4877 46.6345C62.7095 46.4109 61.9037 46.2981 61.094 46.2994H36.4994C27.9494 46.5388 31.3005 57.8522 31.3005 57.8522C19.8661 49.5335 19.0786 30.4736 19.0786 30.4736C23.8036 36.937 27.2672 36.6521 27.2672 36.6521H74.6731C73.6535 44.9277 71.6165 51.9322 68.993 57.8474Z" fill="url(#paint8_linear_14_5)"/>
<path d="M75.5397 30.6942H55.4331C63.2962 28.8557 68.0308 22.1529 68.0308 22.1529C71.2479 18.2341 73.8498 13.377 74.4745 12.1537L74.5798 11.9454L74.6061 11.8904V11.8593C76.8107 22.6077 75.5397 30.6942 75.5397 30.6942Z" fill="url(#paint9_linear_14_5)"/>
<path d="M74.6134 11.8688V11.8879L74.5871 11.943L74.4841 12.1513C73.8594 13.3626 71.2551 18.2317 68.0405 22.1504C52.0988 20.3024 37.7753 11.9861 37.7753 11.9861C24.7109 19.9553 10.5597 21.7554 10.5597 21.7554C4.81496 18.9714 1.03541 12.0962 0.918121 11.8855C22.7194 9.78851 37.9501 0 37.9501 0C55.6414 11.007 74.6134 11.8688 74.6134 11.8688Z" fill="url(#paint10_linear_14_5)"/>
<path d="M37.7682 76.2111C37.7682 76.2111 21.1205 77.1926 7.20628 59.4325C-3.54832 36.911 0.920593 11.8593 0.920593 11.8593C1.03788 12.0723 4.81982 18.9451 10.5622 21.7315C11.9816 53.7016 24.1652 67.4137 31.7363 72.8908L31.7626 72.9052C35.1687 75.3709 37.6414 76.1608 37.761 76.1991L37.7682 76.2111Z" fill="url(#paint11_linear_14_5)"/>
<path d="M68.9896 57.8538C58.2182 82.1492 37.5923 88.0357 37.5923 88.0357C21.9163 81.5028 12.6266 70.7998 7.20505 59.4457C21.1193 77.2058 37.767 76.2243 37.767 76.2243C55.7863 69.1768 61.0978 46.301 61.0978 46.301C61.9045 46.3365 62.706 46.4487 63.4914 46.6362C66.7683 47.4046 71.9242 49.8751 68.9896 57.8538Z" fill="url(#paint12_radial_14_5)"/>
<defs>
<linearGradient id="paint0_linear_14_5" x1="100.723" y1="44.0497" x2="156.965" y2="44.0497" gradientUnits="userSpaceOnUse">
<stop stop-color="#8F8F8F"/>
<stop offset="1" stop-color="#555555"/>
</linearGradient>
<linearGradient id="paint1_linear_14_5" x1="166.735" y1="44.0502" x2="222.719" y2="44.0502" gradientUnits="userSpaceOnUse">
<stop stop-color="#8F8F8F"/>
<stop offset="1" stop-color="#555555"/>
</linearGradient>
<linearGradient id="paint2_linear_14_5" x1="517.017" y1="44.0502" x2="573.001" y2="44.0502" gradientUnits="userSpaceOnUse">
<stop stop-color="#8F8F8F"/>
<stop offset="1" stop-color="#555555"/>
</linearGradient>
<linearGradient id="paint3_linear_14_5" x1="366.142" y1="44.0502" x2="422.126" y2="44.0502" gradientUnits="userSpaceOnUse">
<stop stop-color="#8F8F8F"/>
<stop offset="1" stop-color="#555555"/>
</linearGradient>
<linearGradient id="paint4_linear_14_5" x1="432.279" y1="44.0502" x2="438.413" y2="44.0502" gradientUnits="userSpaceOnUse">
<stop stop-color="#8F8F8F"/>
<stop offset="1" stop-color="#555555"/>
</linearGradient>
<linearGradient id="paint5_linear_14_5" x1="233.207" y1="44.0502" x2="289.191" y2="44.0502" gradientUnits="userSpaceOnUse">
<stop stop-color="#8F8F8F"/>
<stop offset="1" stop-color="#555555"/>
</linearGradient>
<linearGradient id="paint6_linear_14_5" x1="449.726" y1="44.0502" x2="505.71" y2="44.0502" gradientUnits="userSpaceOnUse">
<stop stop-color="#8F8F8F"/>
<stop offset="1" stop-color="#555555"/>
</linearGradient>
<linearGradient id="paint7_linear_14_5" x1="299.67" y1="44.0499" x2="355.655" y2="44.0499" gradientUnits="userSpaceOnUse">
<stop stop-color="#8F8F8F"/>
<stop offset="1" stop-color="#555555"/>
</linearGradient>
<linearGradient id="paint8_linear_14_5" x1="15.9261" y1="49.117" x2="76.3275" y2="38.4687" gradientUnits="userSpaceOnUse">
<stop offset="0.07" stop-color="#999999"/>
<stop offset="0.22" stop-color="#B3B3B3"/>
<stop offset="0.36" stop-color="#C5C6C8"/>
<stop offset="0.55" stop-color="#CCCCCC"/>
<stop offset="0.74" stop-color="#B3B3B3"/>
<stop offset="0.98" stop-color="#808285"/>
</linearGradient>
<linearGradient id="paint9_linear_14_5" x1="62.705" y1="34.0169" x2="77.8584" y2="15.9566" gradientUnits="userSpaceOnUse">
<stop offset="0.07" stop-color="#999999"/>
<stop offset="0.37" stop-color="#ACAEB1"/>
<stop offset="0.64" stop-color="#ABADAF"/>
<stop offset="0.94" stop-color="#999999"/>
</linearGradient>
<linearGradient id="paint10_linear_14_5" x1="0.492054" y1="11.0812" x2="74.1873" y2="11.0812" gradientUnits="userSpaceOnUse">
<stop stop-color="#58595B"/>
<stop offset="0.03" stop-color="#5F6062"/>
<stop offset="0.25" stop-color="#919395"/>
<stop offset="0.42" stop-color="#B0B2B4"/>
<stop offset="0.51" stop-color="#BCBEC0"/>
<stop offset="0.59" stop-color="#B7B8BA"/>
<stop offset="0.7" stop-color="#A7A9AB"/>
<stop offset="0.82" stop-color="#8D8F91"/>
<stop offset="0.95" stop-color="#6A6B6D"/>
<stop offset="1" stop-color="#58595B"/>
</linearGradient>
<linearGradient id="paint11_linear_14_5" x1="28.4283" y1="80.5679" x2="-2.8016" y2="13.5995" gradientUnits="userSpaceOnUse">
<stop offset="0.06" stop-color="#BCBEC0"/>
<stop offset="0.2" stop-color="#B3B3B3"/>
<stop offset="0.35" stop-color="#CED0D1"/>
<stop offset="0.48" stop-color="#C9CBCD"/>
<stop offset="0.67" stop-color="#B3B3B3"/>
<stop offset="1" stop-color="#808080"/>
</linearGradient>
<radialGradient id="paint12_radial_14_5" cx="0" cy="0" r="1" gradientUnits="userSpaceOnUse" gradientTransform="translate(38.4205 74.7527) scale(44.9501 43.1562)">
<stop offset="0.24" stop-color="#8B8D90"/>
<stop offset="0.53" stop-color="#A7A9AC"/>
<stop offset="0.64" stop-color="#929497"/>
<stop offset="0.74" stop-color="#808285"/>
<stop offset="0.99" stop-color="#666666"/>
</radialGradient>
</defs>
</svg>
