<svg width="158" height="168" viewBox="0 0 158 168" fill="none" xmlns="http://www.w3.org/2000/svg">
<path d="M119.498 138C95.8485 153.25 56.2547 140.428 40.607 116.161C24.9593 91.8949 6.75621 51.0036 30.4057 35.7538C54.0552 20.5039 100.658 39.817 119.498 53.5005C135.146 77.7669 143.147 122.75 119.498 138Z" fill="url(#paint0_radial_14_4)"/>
<path d="M74 160C58.8333 156.208 46.375 147.406 36.625 133.594C26.875 119.781 22 104.642 22 88.175V49.5L74 30L126 49.5V88.175C126 104.642 121.125 119.781 111.375 133.594C101.625 147.406 89.1667 156.208 74 160ZM74 149.925C85.4833 146.133 94.9896 139.173 102.519 129.044C110.048 118.915 114.462 107.567 115.762 95V56.325L80 40.5625L74 95L69.5 40.5625L31.75 56.325V88.175C31.75 89.475 31.7771 90.5854 31.8312 91.5062C31.8854 92.4271 32.0208 93.5917 32.2375 95V95C33.6627 117.003 46.5994 136.618 66.2635 146.593L69.5 148.234L74 95L78.5 149.5L74 149.925Z" fill="#43484E"/>
<defs>
<radialGradient id="paint0_radial_14_4" cx="0" cy="0" r="1" gradientUnits="userSpaceOnUse" gradientTransform="translate(77.3509 96.3659) rotate(148.05) scale(53.0045 98.1794)">
<stop stop-color="#69FF66"/>
<stop offset="1" stop-color="#37C3FF" stop-opacity="0.72"/>
</radialGradient>
</defs>
</svg>
