<svg width="158" height="168" viewBox="0 0 158 168" fill="none" xmlns="http://www.w3.org/2000/svg">
<path d="M119.506 137.611C95.8563 152.861 56.2625 140.039 40.6148 115.773C24.9672 91.5062 6.76402 50.615 30.4135 35.3651C54.063 20.1153 100.666 39.4283 119.506 53.1118C135.153 77.3783 143.155 122.361 119.506 137.611Z" fill="url(#paint0_radial_14_3)"/>
<path d="M73.875 149.833L15 116.144V50.8906L73.875 19L132.75 50.8906V116.144L73.875 149.833ZM55.2312 68.3896C57.7389 65.8819 60.6009 63.8377 63.8172 62.2568C67.0335 60.6759 70.3861 59.8854 73.875 59.8854C77.3639 59.8854 80.7165 60.6759 83.9328 62.2568C87.1491 63.8377 90.0111 65.8819 92.5188 68.3896L117.541 53.6708L73.875 30.4479L30.2094 53.6708L55.2312 68.3896ZM68.9688 135.769V108.457C63.2993 106.931 58.6111 103.987 54.9042 99.626C51.1972 95.2649 49.3438 90.1951 49.3438 84.4167C49.3438 83.2174 49.4255 81.9908 49.5891 80.737C49.7526 79.4832 50.0524 78.2566 50.4885 77.0573L24.8125 61.8479V110.42L68.9688 135.769ZM73.875 99.1354C78.0181 99.1354 81.5069 97.7181 84.3417 94.8833C87.1764 92.0486 88.5938 88.5597 88.5938 84.4167C88.5938 80.2736 87.1764 76.7847 84.3417 73.95C81.5069 71.1153 78.0181 69.6979 73.875 69.6979C69.7319 69.6979 66.2431 71.1153 63.4083 73.95C60.5736 76.7847 59.1562 80.2736 59.1562 84.4167C59.1562 88.5597 60.5736 92.0486 63.4083 94.8833C66.2431 97.7181 69.7319 99.1354 73.875 99.1354ZM78.7812 135.769L122.938 110.42V61.8479L97.2615 77.0573C97.6976 78.2566 97.9974 79.4832 98.1609 80.737C98.3245 81.9908 98.4062 83.2174 98.4062 84.4167C98.4062 90.1951 96.5528 95.2649 92.8458 99.626C89.1389 103.987 84.4507 106.931 78.7812 108.457V135.769Z" fill="#43484E"/>
<defs>
<radialGradient id="paint0_radial_14_3" cx="0" cy="0" r="1" gradientUnits="userSpaceOnUse" gradientTransform="translate(77.3588 95.9773) rotate(148.05) scale(53.0045 98.1794)">
<stop stop-color="#69FF66"/>
<stop offset="1" stop-color="#37C3FF" stop-opacity="0.72"/>
</radialGradient>
</defs>
</svg>
