<svg width="158" height="168" viewBox="0 0 158 168" fill="none" xmlns="http://www.w3.org/2000/svg">
<path d="M119.506 137.611C95.8563 152.861 56.2625 140.039 40.6148 115.773C24.9672 91.5062 6.76402 50.615 30.4135 35.3651C54.063 20.1153 100.666 39.4283 119.506 53.1118C135.153 77.3783 143.155 122.361 119.506 137.611Z" fill="url(#paint0_radial_14_2)"/>
<path d="M7 115.375V71.3333H16.4375V115.375H7ZM25.875 96.5V52.4583H35.3125V96.5H25.875ZM54.3448 146.833C51.8281 146.833 49.626 145.89 47.7385 144.002C45.851 142.115 44.9073 139.913 44.9073 137.396V30.4375C44.9073 27.9208 45.851 25.7188 47.7385 23.8313C49.626 21.9438 51.8281 21 54.3448 21H110.812C113.329 21 115.531 21.9438 117.419 23.8313C119.306 25.7188 120.25 27.9208 120.25 30.4375V137.396C120.25 139.913 119.306 142.115 117.419 144.002C115.531 145.89 113.329 146.833 110.812 146.833H54.3448ZM110.812 132.677H54.3448V137.396H110.812V132.677ZM54.3448 123.24H110.812V44.5938H54.3448V123.24ZM54.3448 35.1563H110.812V30.4375H54.3448V35.1563ZM129.687 115.375V71.3333H139.125V115.375H129.687ZM148.562 96.5V52.4583H158V96.5H148.562ZM54.3448 35.1563V30.4375V35.1563ZM54.3448 132.677V137.396V132.677Z" fill="#43484E"/>
<defs>
<radialGradient id="paint0_radial_14_2" cx="0" cy="0" r="1" gradientUnits="userSpaceOnUse" gradientTransform="translate(77.3588 95.9773) rotate(148.05) scale(53.0045 98.1794)">
<stop stop-color="#69FF66"/>
<stop offset="1" stop-color="#37C3FF" stop-opacity="0.72"/>
</radialGradient>
</defs>
</svg>
