<svg width="156" height="156" viewBox="0 0 156 156" fill="none" xmlns="http://www.w3.org/2000/svg">
<path d="M78 143C62.8333 139.208 50.375 130.406 40.625 116.594C30.875 102.781 26 87.6417 26 71.175V32.5L78 13L130 32.5V71.175C130 87.6417 125.125 102.781 115.375 116.594C105.625 130.406 93.1667 139.208 78 143ZM78 132.925C89.4833 129.133 98.9896 122.173 106.519 112.044C114.048 101.915 118.462 90.5667 119.762 78H78V23.5625L35.75 39.325V71.175C35.75 72.475 35.7771 73.5854 35.8312 74.5062C35.8854 75.4271 36.0208 76.5917 36.2375 78H78V132.925Z" fill="black"/>
</svg>
