<svg width="151" height="151" viewBox="0 0 151 151" fill="none" xmlns="http://www.w3.org/2000/svg">
<path d="M0 106.958V62.9167H9.4375V106.958H0ZM18.875 88.0834V44.0417H28.3125V88.0834H18.875ZM47.3448 138.417C44.8281 138.417 42.626 137.473 40.7385 135.585C38.851 133.698 37.9073 131.496 37.9073 128.979V22.0209C37.9073 19.5042 38.851 17.3021 40.7385 15.4146C42.626 13.5271 44.8281 12.5834 47.3448 12.5834H103.812C106.329 12.5834 108.531 13.5271 110.419 15.4146C112.306 17.3021 113.25 19.5042 113.25 22.0209V128.979C113.25 131.496 112.306 133.698 110.419 135.585C108.531 137.473 106.329 138.417 103.812 138.417H47.3448ZM103.812 124.26H47.3448V128.979H103.812V124.26ZM47.3448 114.823H103.812V36.1771H47.3448V114.823ZM47.3448 26.7396H103.812V22.0209H47.3448V26.7396ZM122.687 106.958V62.9167H132.125V106.958H122.687ZM141.562 88.0834V44.0417H151V88.0834H141.562ZM47.3448 26.7396V22.0209V26.7396ZM47.3448 124.26V128.979V124.26Z" fill="black"/>
</svg>
