<svg width="157" height="157" viewBox="0 0 157 157" fill="none" xmlns="http://www.w3.org/2000/svg">
<path d="M78.5 143.917L19.625 110.227V44.974L78.5 13.0834L137.375 44.974V110.227L78.5 143.917ZM59.8562 62.473C62.3639 59.9653 65.2259 57.921 68.4422 56.3401C71.6585 54.7592 75.0111 53.9688 78.5 53.9688C81.9889 53.9688 85.3415 54.7592 88.5578 56.3401C91.7741 57.921 94.6361 59.9653 97.1438 62.473L122.166 47.7542L78.5 24.5313L34.8344 47.7542L59.8562 62.473ZM73.5938 129.852V102.541C67.9243 101.014 63.2361 98.0705 59.5292 93.7094C55.8222 89.3483 53.9688 84.2785 53.9688 78.5C53.9688 77.3007 54.0505 76.0742 54.2141 74.8204C54.3776 73.5665 54.6774 72.34 55.1135 71.1407L29.4375 55.9313V104.503L73.5938 129.852ZM78.5 93.2188C82.6431 93.2188 86.1319 91.8014 88.9667 88.9667C91.8014 86.132 93.2188 82.6431 93.2188 78.5C93.2188 74.357 91.8014 70.8681 88.9667 68.0334C86.1319 65.1986 82.6431 63.7813 78.5 63.7813C74.3569 63.7813 70.8681 65.1986 68.0333 68.0334C65.1986 70.8681 63.7812 74.357 63.7812 78.5C63.7812 82.6431 65.1986 86.132 68.0333 88.9667C70.8681 91.8014 74.3569 93.2188 78.5 93.2188ZM83.4062 129.852L127.562 104.503V55.9313L101.886 71.1407C102.323 72.34 102.622 73.5665 102.786 74.8204C102.949 76.0742 103.031 77.3007 103.031 78.5C103.031 84.2785 101.178 89.3483 97.4708 93.7094C93.7639 98.0705 89.0757 101.014 83.4062 102.541V129.852Z" fill="black"/>
</svg>
